<svg width="21" height="21" fill="none" xmlns="http://www.w3.org/2000/svg"><path fill-rule="evenodd" clip-rule="evenodd" d="M19.959.048c-.065.025-2.22 2.148-4.788 4.718L10.5 9.438 5.828 4.767C.751-.311 1.076-.018.634.065.404.108.124.39.08.62c-.083.442-.376.118 4.698 5.2l4.668 4.673-4.691 4.698C-.333 20.286-.049 19.973.032 20.404c.042.228.33.52.553.563.444.083.115.38 5.22-4.725l4.695-4.694 4.694 4.694c5.103 5.102 4.778 4.808 5.219 4.725.23-.043.51-.324.554-.554.083-.442.378-.116-4.722-5.223l-4.69-4.697 4.69-4.698C21.331.702 21.049 1.012 20.969.583c-.08-.426-.593-.698-1.01-.535z" fill="#978769"/></svg>