<svg width="12" height="12" fill="none" xmlns="http://www.w3.org/2000/svg"><path fill-rule="evenodd" clip-rule="evenodd" d="M11.405.027c-.037.015-1.268 1.228-2.736 2.696L6 5.393 3.331 2.724C.429-.178.615-.01.362.037a.47.47 0 00-.316.317C-.002.606-.17.421 2.73 3.324l2.667 2.672-2.68 2.684C-.19 11.592-.028 11.413.018 11.66c.025.13.189.297.316.32.254.048.066.219 2.984-2.699L6 6.6l2.682 2.68c2.916 2.916 2.73 2.747 2.982 2.7a.47.47 0 00.317-.317c.047-.252.216-.065-2.698-2.984l-2.68-2.684 2.68-2.685C12.189.4 12.028.577 11.983.332c-.047-.244-.34-.399-.578-.306z" fill="#fff"/></svg>