<svg width="107" height="16" fill="none" xmlns="http://www.w3.org/2000/svg"><path d="M8.553 14.45c.575-.615.862-1.489.862-2.622 0-1.214-.366-2.198-1.097-2.958-.731-.757-1.72-1.144-2.962-1.162-.583-.015-1.227 0-1.935.048v5.963c0 .43.068.761.2.993.133.231.381.398.745.502.361.103.888.155 1.582.155 1.162.002 2.03-.305 2.605-.92zM4.033 1.03c-.205.065-.36.216-.462.454-.102.24-.154.638-.154 1.196v4.55l1.11.024c1.242 0 2.148-.299 2.714-.898.566-.6.848-1.39.848-2.382 0-.893-.248-1.625-.742-2.19-.496-.566-1.28-.85-2.348-.85-.437 0-.762.033-.966.096zm5.62 7.423c.754.75 1.133 1.676 1.133 2.777 0 .864-.198 1.636-.59 2.322a4.252 4.252 0 01-1.628 1.616 4.57 4.57 0 01-2.29.586c-.535 0-1.1-.023-1.699-.071a29.534 29.534 0 00-.78-.048c-.3-.015-.637-.023-1.013-.023l-1.559.023a23.33 23.33 0 01-1.18.024c-.032 0-.047-.047-.047-.145 0-.095.015-.143.048-.143.629 0 1.09-.04 1.38-.119.291-.08.492-.235.603-.467.11-.231.165-.586.165-1.064V2.635c0-.478-.05-.829-.155-1.054-.102-.222-.298-.378-.59-.467C1.16 1.028.708.982.097.982.048.982.024.934.024.84c0-.095.024-.142.072-.142L1.227.72c.63.033 1.15.048 1.559.048.283 0 .55-.009.803-.024C3.84.73 4.06.712 4.25.697c.488-.048.921-.072 1.3-.072 1.305 0 2.27.299 2.892.898.62.6.932 1.36.932 2.287 0 .783-.244 1.464-.732 2.046-.487.582-1.14 1.035-1.958 1.353 1.22.077 2.213.493 2.968 1.244zm14.581 6.225c.896-.528 1.606-1.303 2.124-2.324.52-1.021.779-2.241.779-3.663 0-1.5-.287-2.836-.862-4.01-.574-1.176-1.384-2.089-2.43-2.742-1.048-.653-2.264-.982-3.648-.982-1.826 0-3.25.575-4.273 1.724-1.022 1.149-1.534 2.713-1.534 4.693 0 1.484.287 2.845.862 4.082.574 1.238 1.382 2.216 2.42 2.934s2.22 1.077 3.54 1.077c1.117 0 2.125-.264 3.022-.79zm-7.779.227a7.1 7.1 0 01-2.644-2.826c-.622-1.188-.931-2.486-.931-3.89 0-1.644.409-3.052 1.227-4.225a7.711 7.711 0 013.151-2.646c1.282-.59 2.593-.885 3.93-.885 1.496 0 2.81.355 3.942 1.065a7.174 7.174 0 012.608 2.814 7.942 7.942 0 01.91 3.71 7.399 7.399 0 01-1.135 3.999 8.192 8.192 0 01-3.033 2.873 8.35 8.35 0 01-4.12 1.054c-1.46-.003-2.764-.349-3.905-1.043zm17.002-1.282c0 .463.05.8.152 1.017.102.216.292.364.566.444.274.08.712.119 1.31.119h3.02c1.56 0 2.48-1.013 2.763-3.04 0-.048.043-.067.13-.06.087.008.13.034.13.084-.14 1.261-.212 2.297-.212 3.11 0 .13-.024.221-.072.275-.048.057-.142.085-.283.085H30.103c-.033 0-.048-.048-.048-.145 0-.095.015-.143.048-.143.614 0 1.066-.039 1.358-.119.292-.08.488-.236.59-.467.102-.232.154-.586.154-1.065V2.633c0-.478-.052-.831-.154-1.054-.102-.223-.298-.379-.59-.467-.291-.089-.744-.132-1.358-.132-.033 0-.048-.048-.048-.143 0-.095.015-.143.048-.143l1.158.024a34.2 34.2 0 001.558.048c.424 0 .969-.016 1.628-.048l1.11-.024c.03 0 .048.048.048.143 0 .095-.015.143-.048.143-.614 0-1.066.043-1.356.132-.291.088-.487.249-.59.478-.102.231-.152.586-.152 1.064v10.97h-.002zm20.782 1.055c.896-.528 1.606-1.303 2.124-2.324.52-1.021.779-2.241.779-3.663 0-1.5-.287-2.836-.862-4.01-.574-1.176-1.384-2.089-2.43-2.742-1.048-.653-2.264-.982-3.648-.982-1.826 0-3.25.575-4.273 1.724-1.022 1.149-1.534 2.713-1.534 4.693 0 1.484.287 2.845.862 4.082.575 1.238 1.38 2.216 2.42 2.934 1.038.718 2.22 1.077 3.541 1.077 1.119 0 2.124-.264 3.02-.79zm-7.776.227a7.1 7.1 0 01-2.645-2.826c-.622-1.188-.931-2.486-.931-3.89 0-1.644.41-3.052 1.227-4.225a7.71 7.71 0 013.152-2.646c1.282-.59 2.592-.885 3.93-.885 1.495 0 2.81.355 3.942 1.065a7.175 7.175 0 012.607 2.814 7.943 7.943 0 01.91 3.71 7.417 7.417 0 01-1.134 3.999 8.192 8.192 0 01-3.034 2.873 8.347 8.347 0 01-4.118 1.054c-1.464-.003-2.766-.349-3.906-1.043zM61.608 1.82c-.457.478-.764 1.332-.92 2.561 0 .033-.048.048-.142.048-.094 0-.142-.015-.142-.048.064-.43.135-1.12.214-2.07.078-.95.117-1.664.117-2.144 0-.08.048-.12.142-.12.093 0 .141.042.141.12 0 .35.418.525 1.252.525 1.353.048 2.933.072 4.744.072.93 0 1.913-.015 2.951-.048l1.606-.024c.566 0 .984-.039 1.25-.119.267-.08.441-.24.52-.478.015-.063.063-.095.141-.095.079 0 .118.032.118.095-.048.448-.094 1.13-.142 2.047-.046.917-.07 1.664-.07 2.24 0 .032-.047.047-.14.047-.094 0-.142-.015-.142-.048 0-.846-.087-1.5-.26-1.962-.171-.463-.463-.799-.872-1.006-.41-.208-.984-.312-1.724-.312-.818 0-1.392.028-1.723.085-.331.056-.555.188-.673.396-.117.207-.176.575-.176 1.1v11.039c0 .495.054.854.165 1.077.111.223.331.377.662.455.33.08.85.119 1.558.119.03 0 .048.047.048.142 0 .096-.015.143-.048.143-.52 0-.93-.008-1.227-.024l-1.817-.023-1.724.023a25.51 25.51 0 01-1.297.024c-.033 0-.046-.047-.046-.143 0-.095.015-.142.046-.142.707 0 1.227-.041 1.558-.12.33-.08.555-.235.672-.467.118-.231.177-.586.177-1.064V2.635c0-.526-.063-.89-.19-1.088-.126-.2-.35-.322-.672-.37-.322-.048-.908-.071-1.759-.071-.994-.005-1.719.235-2.176.713zM91.13.837c0 .095-.024.143-.07.143-.676 0-1.153.169-1.427.504-.274.335-.414.91-.414 1.724v12.713c0 .032-.039.056-.117.071-.079.015-.135.009-.166-.024L78.268 2.656l-.4-.454v10.965c0 .813.132 1.384.4 1.711.268.327.731.491 1.393.491.046 0 .07.048.07.143 0 .095-.024.145-.07.145-.377 0-.67-.009-.875-.024l-1.132-.024-1.158.024c-.204.015-.511.024-.92.024-.033 0-.048-.048-.048-.145 0-.095.015-.143.048-.143.677 0 1.14-.16 1.393-.48.252-.318.378-.894.378-1.724V1.694c-.55-.477-1.118-.717-1.7-.717-.045 0-.069-.048-.069-.143 0-.095.024-.143.07-.143l.85.024c.173.015.418.024.732.024.268 0 .487-.009.66-.024a5.07 5.07 0 01.4-.024c.11 0 .2.028.272.084.07.057.152.171.248.349.172.287.361.558.566.813l9.323 11.757V3.208c0-.813-.126-1.389-.376-1.724-.253-.335-.708-.504-1.37-.504-.032 0-.045-.048-.045-.143 0-.095.015-.143.046-.143l.896.024c.473.032.851.048 1.134.048.268 0 .653-.016 1.158-.048l.92-.024c.044 0 .068.048.068.143zm15.87 0c0 .095-.015.143-.048.143-.581 0-1.149.188-1.699.562-.551.375-1.047.907-1.487 1.593l-3.33 5.123v5.458c0 .496.048.855.142 1.078.093.223.283.376.566.454.282.08.74.119 1.368.119.046 0 .07.048.07.143 0 .095-.024.145-.07.145-.472 0-.842-.009-1.109-.024l-1.604-.024-1.607.024a22.1 22.1 0 01-1.133.024c-.046 0-.07-.048-.07-.145 0-.095.024-.143.07-.143.613 0 1.066-.041 1.358-.119.291-.08.492-.236.6-.467.111-.232.166-.587.166-1.065v-5.1l-4.038-5.938c-.409-.623-.81-1.06-1.203-1.315-.394-.256-.881-.383-1.465-.383-.047 0-.07-.048-.07-.143 0-.095.025-.143.07-.143l.875.024c.377.032.66.048.851.048.518 0 1.156-.016 1.911-.048l1.227-.024c.03 0 .046.048.046.143 0 .095-.015.143-.046.143-.472 0-.813.037-1.027.108-.213.071-.317.188-.317.348 0 .095.078.264.237.502l3.965 5.77 3.021-4.645c.346-.575.52-1.012.52-1.317 0-.51-.424-.766-1.275-.766-.033 0-.046-.048-.046-.143 0-.095.015-.143.046-.143l1.062.024c.598.032 1.125.048 1.58.048.267 0 .589-.016.968-.048l.873-.024c.037 0 .052.048.052.143z" fill="#fff"/></svg>