<svg width="240" height="66" fill="none" xmlns="http://www.w3.org/2000/svg"><path d="M19.188 32.6c1.286-1.386 1.929-3.357 1.929-5.914 0-2.736-.822-4.957-2.465-6.671-1.643-1.708-3.857-2.586-6.643-2.622a46.24 46.24 0 00-4.344.107v13.45c0 .972.15 1.722.45 2.243.3.522.857.9 1.672 1.136.814.236 1.993.35 3.55.35 2.615 0 4.565-.693 5.851-2.079zM9.051 2.322c-.457.142-.8.485-1.036 1.028-.228.543-.343 1.443-.343 2.7v10.264l2.486.058c2.786 0 4.815-.672 6.087-2.029 1.271-1.35 1.907-3.143 1.907-5.371 0-2.015-.557-3.665-1.664-4.943-1.115-1.279-2.865-1.922-5.265-1.922-.986 0-1.715.072-2.172.215zm12.602 16.75c1.693 1.693 2.543 3.778 2.543 6.264 0 1.943-.443 3.693-1.322 5.236a9.581 9.581 0 01-3.65 3.65c-1.558.885-3.265 1.321-5.137 1.321-1.2 0-2.471-.057-3.814-.164a93.358 93.358 0 00-1.75-.107 42.988 42.988 0 00-2.28-.057l-3.493.057c-.635.035-1.521.057-2.643.057C.036 35.329 0 35.215 0 35c0-.214.036-.321.107-.321 1.415 0 2.443-.093 3.093-.272.65-.178 1.1-.528 1.35-1.05.25-.521.372-1.321.372-2.4V5.943c0-1.079-.114-1.871-.343-2.379-.228-.507-.671-.857-1.321-1.05-.658-.2-1.672-.3-3.044-.3-.107 0-.157-.107-.157-.32 0-.215.057-.322.157-.322l2.543.057c1.415.071 2.58.107 3.494.107.636 0 1.236-.022 1.8-.057a75.429 75.429 0 001.486-.107 30.34 30.34 0 012.914-.165c2.93 0 5.094.679 6.487 2.029 1.393 1.35 2.093 3.071 2.093 5.157 0 1.764-.55 3.307-1.643 4.614-1.093 1.315-2.557 2.329-4.393 3.05 2.743.186 4.964 1.115 6.658 2.815zm32.704 14.042c2.014-1.185 3.6-2.935 4.764-5.242 1.165-2.308 1.75-5.058 1.75-8.265 0-3.385-.642-6.4-1.928-9.05-1.286-2.65-3.108-4.707-5.45-6.185-2.351-1.479-5.073-2.215-8.18-2.215-4.094 0-7.287 1.293-9.58 3.886s-3.443 6.121-3.443 10.586c0 3.35.643 6.421 1.928 9.207 1.286 2.793 3.1 5 5.43 6.614 2.329 1.622 4.979 2.429 7.944 2.429 2.5.014 4.757-.579 6.765-1.765zm-17.438.515c-2.558-1.565-4.536-3.693-5.93-6.372-1.392-2.678-2.093-5.607-2.093-8.778 0-3.707.915-6.886 2.75-9.536 1.837-2.65 4.194-4.636 7.066-5.971 2.879-1.329 5.815-2 8.815-2 3.35 0 6.301.8 8.844 2.4 2.543 1.6 4.494 3.721 5.85 6.35a18 18 0 012.037 8.371c0 3.279-.843 6.286-2.543 9.021-1.693 2.736-3.965 4.9-6.801 6.479-2.843 1.586-5.922 2.379-9.237 2.379-3.279 0-6.2-.779-8.758-2.343zm38.126-2.893c0 1.043.114 1.807.343 2.293.229.485.65.821 1.272 1 .614.178 1.6.271 2.936.271h6.78c3.492 0 5.557-2.285 6.193-6.857 0-.107.1-.15.293-.136.193.022.293.079.293.193-.315 2.843-.48 5.186-.48 7.022 0 .293-.05.492-.156.621-.108.129-.315.193-.636.193H67.53c-.071 0-.107-.107-.107-.329 0-.214.036-.321.107-.321 1.379 0 2.393-.093 3.043-.272.65-.178 1.093-.528 1.322-1.057.228-.521.343-1.321.343-2.4V5.943c0-1.079-.115-1.871-.343-2.379-.229-.507-.672-.857-1.322-1.057-.65-.2-1.664-.3-3.043-.3-.071 0-.107-.107-.107-.321 0-.214.036-.322.107-.322l2.593.058a76.7 76.7 0 003.493.107c.95 0 2.172-.036 3.65-.107l2.487-.058c.071 0 .107.108.107.322 0 .214-.036.321-.107.321-1.379 0-2.393.1-3.043.3-.65.2-1.093.557-1.322 1.079-.229.521-.343 1.321-.343 2.407v24.743zm46.62 2.378c2.014-1.185 3.6-2.935 4.764-5.242 1.165-2.308 1.751-5.058 1.751-8.265 0-3.385-.643-6.4-1.929-9.05-1.286-2.65-3.108-4.707-5.451-6.185-2.35-1.479-5.072-2.215-8.179-2.215-4.094 0-7.287 1.293-9.58 3.886s-3.443 6.121-3.443 10.586c0 3.35.643 6.421 1.928 9.207 1.286 2.793 3.101 5 5.43 6.614 2.329 1.622 4.979 2.429 7.943 2.429 2.494.014 4.751-.579 6.766-1.765zm-17.445.515c-2.558-1.565-4.537-3.693-5.93-6.372-1.393-2.678-2.093-5.607-2.093-8.778 0-3.707.922-6.886 2.75-9.536 1.837-2.65 4.194-4.636 7.066-5.971 2.879-1.329 5.815-2 8.815-2 3.35 0 6.301.8 8.844 2.4 2.543 1.6 4.493 3.721 5.851 6.35a18.004 18.004 0 012.036 8.371c0 3.279-.85 6.286-2.544 9.021-1.693 2.736-3.964 4.9-6.8 6.479-2.844 1.586-5.922 2.379-9.237 2.379-3.279 0-6.201-.779-8.758-2.343zm33.975-29.522c-1.022 1.079-1.715 3.007-2.065 5.779 0 .071-.107.107-.321.107-.215 0-.322-.036-.322-.107.143-.972.3-2.529.479-4.672s.264-3.757.264-4.835c0-.179.107-.272.322-.272.214 0 .314.093.314.272 0 .792.936 1.185 2.808 1.185 3.036.107 6.579.165 10.644.165 2.086 0 4.286-.036 6.615-.108l3.6-.057c1.272 0 2.208-.093 2.808-.271.6-.179.985-.543 1.164-1.079.036-.143.143-.214.321-.214.179 0 .265.071.265.214-.107 1.007-.215 2.55-.322 4.622a101.455 101.455 0 00-.157 5.05c0 .071-.107.107-.321.107-.215 0-.315-.036-.315-.107 0-1.907-.192-3.386-.585-4.429-.386-1.043-1.043-1.8-1.958-2.271-.914-.465-2.207-.7-3.865-.7-1.835 0-3.121.064-3.864.185-.743.129-1.243.422-1.508.893-.264.472-.4 1.293-.4 2.486v24.9c0 1.114.122 1.929.372 2.429.25.507.743.85 1.486 1.028.743.179 1.907.272 3.493.272.071 0 .107.107.107.321 0 .214-.036.321-.107.321-1.164 0-2.086-.021-2.75-.057l-4.079-.057-3.872.064a59.8 59.8 0 01-2.915.058c-.071 0-.107-.108-.107-.322 0-.214.036-.321.107-.321 1.586 0 2.75-.093 3.493-.272.743-.178 1.243-.528 1.508-1.05.264-.521.4-1.321.4-2.4V5.943c0-1.186-.143-2.007-.429-2.457-.286-.45-.786-.729-1.507-.836-.722-.107-2.036-.164-3.944-.164-2.214 0-3.836.535-4.857 1.621zm66.208-2.214c0 .214-.05.321-.157.321-1.521 0-2.586.379-3.207 1.136-.615.757-.929 2.05-.929 3.886v28.678c0 .072-.086.129-.264.165-.179.035-.3.021-.372-.057L175.543 5.986l-.9-1.029v24.736c0 1.836.3 3.122.9 3.864.6.736 1.636 1.107 3.121 1.107.108 0 .158.108.158.322 0 .214-.05.321-.158.321-.842 0-1.5-.021-1.957-.057l-2.536-.057-2.593.057a28.46 28.46 0 01-2.065.057c-.071 0-.107-.107-.107-.321 0-.214.036-.322.107-.322 1.515 0 2.558-.357 3.122-1.078.565-.721.85-2.014.85-3.886V3.836c-1.236-1.079-2.507-1.622-3.814-1.622-.108 0-.158-.107-.158-.321 0-.214.058-.321.158-.321l1.907.057c.386.035.936.057 1.643.057.6 0 1.093-.022 1.479-.057.385-.036.686-.057.9-.057.25 0 .45.064.607.185.157.129.343.386.557.786.386.65.815 1.257 1.272 1.836L198.945 30.9V7.236c0-1.836-.285-3.136-.85-3.886-.564-.757-1.586-1.136-3.071-1.136-.072 0-.108-.107-.108-.321 0-.214.036-.321.108-.321l2.014.057a39.94 39.94 0 002.543.107c.6 0 1.465-.036 2.593-.107l2.065-.057c.114-.008.164.107.164.321zm35.597 0c0 .214-.035.321-.107.321-1.307 0-2.579.422-3.807 1.272-1.236.843-2.351 2.043-3.336 3.593l-7.466 11.557V30.95c0 1.115.108 1.929.322 2.429.214.507.636.85 1.271 1.028.636.179 1.658.272 3.072.272.107 0 .157.107.157.321 0 .215-.05.322-.157.322-1.057 0-1.886-.022-2.486-.058l-3.6-.057-3.601.057a46.81 46.81 0 01-2.543.058c-.107 0-.157-.108-.157-.322 0-.214.05-.321.157-.321 1.379 0 2.393-.093 3.043-.272.65-.178 1.101-.528 1.351-1.05.25-.521.371-1.321.371-2.4V19.443L213.426 6.05c-.915-1.407-1.815-2.393-2.701-2.971-.878-.579-1.978-.865-3.286-.865-.107 0-.157-.107-.157-.321 0-.214.05-.321.157-.321l1.958.057a24.64 24.64 0 001.907.107c1.165 0 2.593-.036 4.286-.107l2.751-.057c.071 0 .107.107.107.321 0 .214-.036.321-.107.321-1.058 0-1.829.079-2.308.243-.478.165-.714.422-.714.786 0 .214.178.593.529 1.136l8.893 13.014 6.78-10.479c.778-1.292 1.164-2.285 1.164-2.971 0-1.15-.95-1.729-2.857-1.729-.072 0-.107-.107-.107-.321 0-.214.035-.321.107-.321l2.386.057c1.343.071 2.521.107 3.543.107.6 0 1.329-.036 2.172-.107l1.957-.057c.079-.008.114.107.114.321zM2.765 61.758c.685 0 1.293-.165 1.814-.493.529-.329.907-.743 1.136-1.257v-1.836H3.8c-.864 0-1.557.186-2.071.564-.522.379-.779.843-.779 1.4 0 .479.157.864.479 1.164.321.308.764.458 1.336.458zm3.129.692a9.996 9.996 0 01-.136-.77 4.994 4.994 0 01-.043-.658 3.785 3.785 0 01-1.272 1.143 3.58 3.58 0 01-1.793.457c-.843 0-1.493-.229-1.957-.686C.229 61.486 0 60.872 0 60.108c0-.815.343-1.465 1.029-1.95.685-.486 1.614-.729 2.786-.729h1.9v-1.086c0-.628-.2-1.121-.593-1.478-.393-.357-.95-.536-1.657-.536-.665 0-1.215.172-1.65.514-.436.343-.658.757-.658 1.25l-.878-.007-.015-.05c-.028-.657.265-1.243.879-1.757.621-.521 1.407-.779 2.365-.779.95 0 1.714.243 2.293.736.578.493.871 1.2.871 2.122v4.321c0 .307.015.607.05.9.036.293.093.586.172.871h-1zm10.922-7.957l-.707-.05c-.6 0-1.093.172-1.479.515-.385.343-.657.814-.821 1.421v6.072h-.957v-8.793h.835l.122 1.464v.1c.25-.543.586-.964 1-1.271.421-.3.921-.458 1.5-.458.122 0 .243.008.357.029.115.021.207.036.286.064l-.136.907zm9.772 7.3a2.7 2.7 0 001.672-.55c.486-.364.722-.878.722-1.528h.843l.014.05c.029.814-.293 1.493-.957 2.043a3.494 3.494 0 01-2.3.821c-1.172 0-2.08-.414-2.722-1.228-.643-.822-.958-1.879-.958-3.165v-.343c0-1.278.322-2.328.965-3.15.643-.821 1.543-1.235 2.707-1.235.943 0 1.736.285 2.365.857.628.571.936 1.314.914 2.243l-.014.05h-.85c0-.708-.229-1.265-.7-1.686-.465-.422-1.036-.629-1.708-.629-.921 0-1.607.336-2.05 1.015-.443.671-.664 1.521-.664 2.543v.342c0 1.036.221 1.893.664 2.565.436.65 1.122.985 2.058.985zm10.181-6.629a3.182 3.182 0 011.15-1.228c.478-.293 1.035-.436 1.671-.436.907 0 1.608.286 2.093.864.486.572.729 1.465.729 2.672v5.421h-.957v-5.45c0-.957-.186-1.643-.55-2.057-.372-.414-.879-.621-1.53-.621-.65 0-1.2.171-1.635.528-.436.35-.764.815-.964 1.393v6.207h-.958V49.772h.958v5.392h-.008zM49.32 62.45h-.95v-8.793h.95v8.793zm0-11.314h-.95v-1.364h.95v1.364zm8.416.271v2.25h1.893v.793h-1.893v5.729c0 .571.1.978.307 1.221.207.243.479.364.814.364a4.97 4.97 0 00.958-.092l.142.721a2.54 2.54 0 01-.578.164 4.444 4.444 0 01-.686.057c-.607 0-1.079-.192-1.414-.585-.336-.393-.508-1.007-.508-1.85V54.45h-1.493v-.793h1.493v-2.25h.965zm11.822 2.915c-.707 0-1.3.271-1.779.821-.478.55-.757 1.236-.835 2.065l.014.043h5.05v-.243c0-.765-.22-1.4-.664-1.915-.435-.514-1.036-.771-1.786-.771zm.115 8.3c-1.08 0-1.972-.407-2.686-1.221-.715-.815-1.072-1.843-1.072-3.086v-.45c0-1.257.357-2.3 1.064-3.129.708-.828 1.572-1.243 2.58-1.243 1.057 0 1.885.343 2.493 1.022.607.686.907 1.593.907 2.728v.829h-6.087v.236c0 .992.257 1.814.772 2.478.514.665 1.193 1 2.029 1 .593 0 1.1-.085 1.521-.25a3.049 3.049 0 001.079-.721l.407.664a3.36 3.36 0 01-1.229.829c-.5.214-1.093.314-1.778.314zm12.922-.829a2.7 2.7 0 001.672-.55c.486-.364.722-.878.722-1.528h.842l.015.05c.028.814-.293 1.493-.958 2.043a3.495 3.495 0 01-2.3.821c-1.171 0-2.079-.414-2.722-1.228-.642-.822-.957-1.879-.957-3.165v-.343c0-1.278.322-2.328.965-3.15.642-.821 1.543-1.235 2.707-1.235.943 0 1.736.285 2.365.857.628.571.936 1.314.914 2.243l-.014.05h-.85c0-.708-.229-1.265-.7-1.686-.465-.422-1.036-.629-1.708-.629-.921 0-1.607.336-2.05 1.015-.443.671-.664 1.521-.664 2.543v.342c0 1.036.221 1.893.664 2.565.436.65 1.129.985 2.057.985zm11.688-10.386v2.25h1.893v.793h-1.893v5.729c0 .571.1.978.307 1.221.207.243.478.364.814.364a4.97 4.97 0 00.958-.092l.142.721a2.677 2.677 0 01-.578.164 4.444 4.444 0 01-.686.057c-.607 0-1.079-.192-1.415-.585-.335-.393-.507-1.007-.507-1.85V54.45h-1.493v-.793h1.493v-2.25h.965zm13.858 9.608c-.278.514-.65.914-1.114 1.193-.465.278-1.022.421-1.658.421-.907 0-1.621-.314-2.136-.943-.514-.628-.771-1.6-.771-2.928v-5.093h.957v5.121c0 1.072.179 1.85.536 2.314.357.465.864.7 1.522.7.721 0 1.3-.164 1.728-.492.429-.336.729-.786.9-1.372v-6.271h.958v8.793h-.843l-.079-1.443zm10.852-6.522l-.707-.05c-.6 0-1.093.172-1.479.515-.386.343-.657.814-.821 1.421v6.072h-.958v-8.793h.836l.122 1.464v.1c.25-.543.585-.964 1-1.271.421-.3.921-.458 1.5-.458.121 0 .243.008.357.029.114.021.207.036.286.064l-.136.907zm9.729-.171c-.707 0-1.3.271-1.779.821-.478.55-.757 1.236-.836 2.065l.015.043h5.05v-.243c0-.765-.221-1.4-.664-1.915-.436-.514-1.029-.771-1.786-.771zm.122 8.3c-1.079 0-1.972-.407-2.687-1.221-.714-.815-1.071-1.843-1.071-3.086v-.45c0-1.257.357-2.3 1.064-3.129.708-.828 1.572-1.243 2.579-1.243 1.057 0 1.886.343 2.493 1.022.608.686.908 1.593.908 2.728v.829h-6.087v.236c0 .992.257 1.814.772 2.478.514.665 1.193 1 2.029 1 .592 0 1.1-.085 1.521-.25a3.045 3.045 0 001.079-.721l.407.664a3.36 3.36 0 01-1.229.829c-.507.214-1.093.314-1.778.314zm22.403-9.508c0 .357.085.729.25 1.115.164.385.421.792.771 1.228l1.407-1.071c.308-.243.529-.5.658-.765.128-.264.192-.55.192-.85 0-.428-.135-.785-.421-1.064-.279-.278-.664-.421-1.164-.421-.543 0-.958.178-1.258.528-.285.343-.435.779-.435 1.3zm1.557 8.679c.486 0 .964-.1 1.429-.293a4.14 4.14 0 001.257-.829l-3.301-3.914c-.028-.028-.05-.05-.064-.071-.021-.022-.036-.036-.043-.065l-.371.293c-.614.507-1.029.965-1.236 1.379-.207.414-.314.786-.314 1.136 0 .671.228 1.228.678 1.685.443.45 1.1.679 1.965.679zm-1.243-5.8c-.429-.543-.75-1.036-.957-1.486a3.241 3.241 0 01-.308-1.378c0-.858.236-1.515.708-1.986.471-.464 1.121-.7 1.943-.7.764 0 1.371.221 1.821.657.45.436.672.993.672 1.657 0 .486-.122.907-.357 1.257-.236.35-.586.707-1.036 1.057l-1.265.993 3.279 3.907c.265-.385.465-.814.608-1.292a5.34 5.34 0 00.214-1.529h.879c0 .693-.1 1.329-.293 1.914a5.103 5.103 0 01-.843 1.579l1.471 1.757-.014.043h-1.093l-.971-1.143c-.451.421-.943.75-1.479.979a4.38 4.38 0 01-1.736.342c-1.107 0-1.986-.292-2.636-.871-.65-.579-.972-1.35-.972-2.314 0-.65.193-1.236.579-1.757.386-.522.943-1.058 1.672-1.6l.114-.086zm24.56 2.307c0 1.071.207 1.914.629 2.55.414.629 1.043.95 1.886.95.614 0 1.128-.143 1.543-.429.414-.278.728-.671.957-1.171v-4.15a3.084 3.084 0 00-.922-1.243c-.4-.321-.914-.478-1.564-.478-.836 0-1.472.35-1.893 1.057-.422.707-.636 1.621-.636 2.75v.164zm-.95-.171c0-1.408.293-2.529.871-3.372.579-.843 1.393-1.264 2.436-1.264.6 0 1.122.128 1.565.393.443.264.807.628 1.1 1.107v-5.214h.95v12.678h-.843l-.078-1.278a3.004 3.004 0 01-1.108 1.071c-.45.25-.978.371-1.593.371-1.028 0-1.836-.392-2.414-1.171-.579-.779-.872-1.836-.872-3.15v-.171h-.014zm16.509-3.807c-.707 0-1.3.271-1.779.821-.478.55-.757 1.236-.836 2.065l.015.043h5.05v-.243c0-.765-.221-1.4-.664-1.915-.429-.514-1.029-.771-1.786-.771zm.122 8.3c-1.079 0-1.972-.407-2.686-1.221-.715-.815-1.072-1.843-1.072-3.086v-.45c0-1.257.357-2.3 1.064-3.129.708-.828 1.565-1.243 2.579-1.243 1.057 0 1.886.343 2.493 1.022.608.686.908 1.593.908 2.728v.829h-6.087v.236c0 .992.257 1.814.772 2.478.514.665 1.193 1 2.029 1 .592 0 1.1-.085 1.521-.25a3.045 3.045 0 001.079-.721l.407.664a3.36 3.36 0 01-1.229.829c-.5.214-1.093.314-1.778.314zm14.787-2.407c0-.407-.165-.772-.5-1.079-.336-.307-.929-.557-1.793-.757-1.029-.228-1.793-.529-2.286-.9-.493-.371-.736-.9-.736-1.586 0-.671.278-1.242.836-1.7.557-.464 1.286-.692 2.2-.692.971 0 1.743.242 2.307.735.565.493.836 1.1.815 1.843l-.015.05h-.885c0-.478-.2-.9-.6-1.257-.4-.357-.943-.536-1.622-.536-.693 0-1.214.15-1.565.457-.35.307-.521.665-.521 1.072 0 .407.15.743.45 1 .3.264.9.493 1.793.693 1.029.235 1.793.55 2.3.957.508.407.765.957.765 1.65 0 .736-.293 1.328-.872 1.785-.578.45-1.35.68-2.307.68-1.043 0-1.872-.258-2.465-.765-.6-.507-.878-1.114-.85-1.822l.014-.05h.879c.036.629.293 1.086.757 1.379.472.286 1.022.428 1.658.428.693 0 1.236-.157 1.636-.464.407-.314.607-.685.607-1.121zm7.858 2.235h-.95v-8.793h.95v8.793zm0-11.314h-.95v-1.364h.95v1.364zm6.915 7.164c0 1.065.215 1.908.636 2.543.421.636 1.057.95 1.893.95.614 0 1.129-.142 1.543-.435a2.8 2.8 0 00.95-1.2v-4.079a3.108 3.108 0 00-.914-1.264c-.4-.329-.922-.493-1.565-.493-.835 0-1.471.35-1.907 1.057-.429.707-.643 1.622-.643 2.743v.179h.007zm-.95-.17c0-1.408.293-2.53.879-3.372.586-.843 1.4-1.265 2.45-1.265.614 0 1.136.136 1.586.408.443.271.814.657 1.107 1.157l.115-1.407h.807v8.678c0 1.129-.307 2.029-.922 2.679-.614.657-1.464.985-2.557.985-.415 0-.857-.05-1.322-.157a5.382 5.382 0 01-1.228-.421l.25-.822c.342.172.7.307 1.078.393.379.086.779.136 1.208.136.835 0 1.471-.243 1.9-.743.428-.493.643-1.179.643-2.057v-1.107a3.11 3.11 0 01-1.108 1.028c-.443.243-.964.365-1.564.365-1.036 0-1.843-.393-2.436-1.179-.586-.786-.879-1.836-.879-3.143v-.157h-.007zm13.737-4.472l.086 1.535c.279-.542.65-.964 1.122-1.257.471-.293 1.028-.443 1.671-.443.936 0 1.643.293 2.136.872.486.586.736 1.493.736 2.728v5.358h-.957v-5.358c0-1.007-.186-1.721-.55-2.142-.372-.422-.893-.629-1.572-.629-.671 0-1.214.178-1.636.543-.421.357-.729.843-.914 1.436v6.15h-.958v-8.793h.836z" fill="#242520"/></svg>