<svg width="12" height="12" fill="none" xmlns="http://www.w3.org/2000/svg"><path fill-rule="evenodd" clip-rule="evenodd" d="M11.227.027C11.19.04 9.979 1.235 8.534 2.68L5.906 5.309 3.28 2.68C.422-.175.605-.009.357.037a.462.462 0 00-.312.311c-.047.249-.212.066 2.643 2.925l2.625 2.629-2.638 2.642c-2.862 2.867-2.703 2.69-2.657 2.933.024.129.186.293.311.317.25.046.065.214 2.937-2.658l2.64-2.64 2.64 2.64c2.871 2.87 2.688 2.704 2.936 2.658a.462.462 0 00.312-.312c.046-.248.213-.065-2.656-2.937L6.499 5.902 9.138 3.26C11.998.395 11.84.57 11.795.328c-.045-.24-.333-.393-.568-.301z" fill="#fff"/></svg>