<svg width="13" height="13" fill="none" xmlns="http://www.w3.org/2000/svg"><path fill-rule="evenodd" clip-rule="evenodd" d="M12.04.402c-.037.014-1.249 1.208-2.694 2.654L6.72 5.684 4.09 3.056C1.235.2 1.417.366 1.17.412a.462.462 0 00-.311.311C.81.972.646.79 3.5 3.648l2.626 2.629-2.639 2.642C.625 11.786.785 11.61.83 11.852c.024.129.186.293.312.317.25.046.064.214 2.936-2.658l2.64-2.64L9.36 9.51c2.87 2.87 2.688 2.704 2.936 2.658a.462.462 0 00.311-.312c.047-.248.213-.065-2.656-2.937L7.312 6.277 9.95 3.635C12.811.77 12.653.945 12.607.703c-.045-.24-.333-.393-.568-.301z" fill="#B0B2B4"/></svg>