<svg width="400" height="110" fill="none" xmlns="http://www.w3.org/2000/svg"><g clip-path="url(#clip0_183_129)" fill="#fff"><path d="M31.98 54.334c2.143-2.31 3.215-5.596 3.215-9.858 0-4.559-1.37-8.261-4.108-11.118-2.738-2.846-6.43-4.31-11.073-4.37-2.178-.06-4.584 0-7.239.179v22.417c0 1.619.25 2.869.75 3.738.5.869 1.43 1.5 2.786 1.893 1.358.392 3.322.583 5.918.583 4.358 0 7.608-1.155 9.751-3.464zM15.085 3.869c-.762.238-1.333.81-1.726 1.715-.381.904-.572 2.404-.572 4.5V27.19l4.144.095c4.643 0 8.024-1.119 10.144-3.38 2.119-2.25 3.179-5.239 3.179-8.953 0-3.357-.93-6.107-2.774-8.238-1.858-2.131-4.775-3.203-8.775-3.203-1.643 0-2.858.12-3.62.357zm21.003 27.917c2.821 2.822 4.238 6.298 4.238 10.44 0 3.239-.738 6.155-2.202 8.727-1.465 2.583-3.5 4.607-6.085 6.083-2.595 1.476-5.44 2.202-8.56 2.202-2 0-4.12-.095-6.358-.273-.821-.06-1.798-.12-2.917-.179a71.532 71.532 0 00-3.798-.095l-5.822.095c-1.06.06-2.536.095-4.405.095-.12 0-.179-.19-.179-.547 0-.358.06-.536.179-.536 2.357 0 4.072-.155 5.155-.452 1.083-.298 1.834-.881 2.25-1.75.417-.87.62-2.203.62-4V9.906c0-1.799-.191-3.12-.572-3.965-.381-.845-1.12-1.429-2.203-1.75-1.095-.334-2.786-.5-5.072-.5-.178 0-.262-.179-.262-.536 0-.357.095-.536.262-.536l4.239.096c2.357.119 4.298.178 5.822.178 1.06 0 2.06-.036 3-.095.94-.06 1.762-.12 2.477-.179 1.821-.178 3.44-.273 4.858-.273 4.881 0 8.489 1.13 10.81 3.38 2.322 2.25 3.489 5.12 3.489 8.596 0 2.94-.917 5.512-2.739 7.69-1.821 2.19-4.262 3.881-7.322 5.084 4.572.31 8.275 1.857 11.097 4.69zM90.594 55.19c3.358-1.976 6.001-4.892 7.942-8.737 1.94-3.846 2.917-8.429 2.917-13.774 0-5.643-1.072-10.667-3.215-15.084-2.143-4.416-5.18-7.845-9.084-10.31-3.917-2.463-8.454-3.69-13.633-3.69-6.822 0-12.144 2.155-15.966 6.477-3.822 4.321-5.739 10.202-5.739 17.642 0 5.584 1.072 10.703 3.215 15.346 2.143 4.654 5.167 8.333 9.048 11.023 3.882 2.703 8.3 4.048 13.24 4.048 4.167.024 7.93-.964 11.275-2.94zm-29.063.858c-4.262-2.607-7.56-6.155-9.882-10.62-2.322-4.464-3.488-9.344-3.488-14.63 0-6.179 1.524-11.476 4.584-15.893 3.06-4.417 6.988-7.726 11.775-9.952 4.798-2.215 9.691-3.334 14.692-3.334 5.584 0 10.501 1.334 14.74 4 4.238 2.667 7.489 6.203 9.751 10.584 2.262 4.38 3.393 9.035 3.393 13.952 0 5.464-1.405 10.476-4.238 15.036-2.822 4.56-6.608 8.166-11.335 10.797-4.739 2.643-9.87 3.965-15.395 3.965-5.465 0-10.334-1.298-14.597-3.905zm63.544-4.821c0 1.738.19 3.011.571 3.82.381.81 1.083 1.37 2.119 1.668 1.024.297 2.667.452 4.894.452h11.299c5.822 0 9.263-3.81 10.322-11.429 0-.178.167-.25.489-.226.321.036.488.131.488.322-.524 4.738-.798 8.642-.798 11.702 0 .488-.083.821-.262 1.036-.179.214-.524.321-1.06.321h-40.588c-.119 0-.178-.178-.178-.547 0-.358.059-.536.178-.536 2.298 0 3.989-.155 5.072-.453 1.084-.297 1.822-.88 2.203-1.761.381-.87.571-2.203.571-4V9.904c0-1.798-.19-3.119-.571-3.964-.381-.845-1.119-1.429-2.203-1.762-1.083-.333-2.774-.5-5.072-.5-.119 0-.178-.179-.178-.536 0-.357.059-.536.178-.536l4.322.096c2.465.119 4.405.178 5.822.178 1.584 0 3.62-.06 6.084-.178l4.144-.096c.119 0 .178.179.178.536 0 .357-.059.536-.178.536-2.298 0-3.989.167-5.072.5-1.084.333-1.822.928-2.203 1.797-.381.87-.571 2.203-.571 4.012v41.239zm77.699 3.963c3.358-1.976 6.001-4.892 7.942-8.737 1.94-3.846 2.917-8.429 2.917-13.774 0-5.643-1.072-10.667-3.215-15.084-2.143-4.416-5.179-7.845-9.085-10.31-3.917-2.463-8.453-3.69-13.632-3.69-6.822 0-12.144 2.155-15.966 6.477-3.822 4.321-5.739 10.202-5.739 17.642 0 5.584 1.071 10.703 3.215 15.346 2.143 4.654 5.167 8.333 9.048 11.023 3.882 2.703 8.299 4.048 13.24 4.048 4.155.024 7.918-.964 11.275-2.94zm-29.075.858c-4.262-2.607-7.56-6.155-9.882-10.62-2.322-4.464-3.488-9.344-3.488-14.63 0-6.179 1.535-11.476 4.583-15.893 3.06-4.417 6.989-7.726 11.776-9.952 4.798-2.215 9.691-3.334 14.692-3.334 5.584 0 10.501 1.334 14.74 4 4.238 2.667 7.489 6.203 9.751 10.584 2.262 4.38 3.393 9.035 3.393 13.952 0 5.464-1.417 10.476-4.238 15.036-2.822 4.56-6.608 8.166-11.335 10.797-4.739 2.643-9.87 3.965-15.395 3.965-5.465 0-10.334-1.298-14.597-3.905zm56.626-49.203c-1.702 1.798-2.857 5.012-3.441 9.631 0 .12-.178.179-.535.179-.358 0-.536-.06-.536-.179.238-1.619.5-4.214.797-7.786.298-3.571.441-6.261.441-8.059 0-.298.179-.452.536-.452.357 0 .524.154.524.452 0 1.321 1.559 1.976 4.679 1.976 5.06.179 10.965.274 17.74.274 3.477 0 7.144-.06 11.025-.179l6.001-.095c2.119 0 3.679-.155 4.679-.452 1-.298 1.643-.905 1.941-1.798.059-.238.238-.357.535-.357.298 0 .441.119.441.357-.179 1.679-.357 4.25-.536 7.703-.178 3.452-.262 6.261-.262 8.416 0 .12-.178.179-.536.179-.357 0-.523-.06-.523-.179 0-3.178-.322-5.643-.977-7.38-.643-1.739-1.738-3-3.262-3.786-1.524-.774-3.679-1.167-6.441-1.167-3.06 0-5.203.107-6.442.31-1.238.214-2.071.702-2.512 1.487-.44.786-.666 2.155-.666 4.143v41.5c0 1.858.202 3.215.619 4.048.416.845 1.238 1.417 2.476 1.714 1.238.298 3.179.453 5.822.453.119 0 .179.178.179.535 0 .358-.06.536-.179.536-1.94 0-3.476-.036-4.584-.095l-6.798-.095-6.453.107c-1.179.06-2.798.095-4.858.095-.119 0-.178-.179-.178-.536 0-.357.059-.535.178-.535 2.643 0 4.584-.155 5.822-.453 1.238-.297 2.072-.88 2.512-1.75.441-.869.667-2.202.667-4V9.905c0-1.976-.238-3.345-.714-4.095-.476-.75-1.31-1.215-2.512-1.393-1.203-.179-3.394-.274-6.573-.274-3.691 0-6.393.893-8.096 2.702zm110.346-3.69c0 .357-.083.536-.262.536-2.536 0-4.31.63-5.345 1.893-1.024 1.262-1.548 3.416-1.548 6.476v47.798c0 .119-.143.214-.441.273-.297.06-.5.036-.619-.095L292.57 9.976l-1.5-1.714v41.226c0 3.06.5 5.203 1.5 6.44 1.001 1.227 2.727 1.846 5.203 1.846.179 0 .262.179.262.536 0 .357-.083.536-.262.536-1.404 0-2.5-.036-3.262-.096l-4.227-.095-4.322.095c-.762.06-1.916.096-3.44.096-.119 0-.179-.179-.179-.536 0-.357.06-.536.179-.536 2.524 0 4.262-.595 5.203-1.797.94-1.203 1.416-3.358 1.416-6.477V6.393c-2.059-1.797-4.179-2.702-6.357-2.702-.179 0-.262-.179-.262-.536 0-.357.095-.536.262-.536l3.178.096c.643.06 1.56.095 2.739.095 1 0 1.822-.036 2.464-.095.643-.06 1.143-.096 1.501-.096.416 0 .75.107 1.012.31.262.214.571.643.928 1.31a27.916 27.916 0 002.12 3.059L331.575 51.5V12.06c0-3.06-.476-5.226-1.417-6.476-.94-1.262-2.643-1.893-5.119-1.893-.119 0-.179-.179-.179-.536 0-.357.06-.536.179-.536l3.357.096c1.762.119 3.179.178 4.239.178 1 0 2.44-.06 4.322-.178l3.441-.096c.19-.012.273.179.273.536zm59.329 0c0 .357-.06.536-.179.536-2.178 0-4.298.702-6.346 2.119-2.059 1.405-3.917 3.405-5.56 5.988L375.473 31.06v20.524c0 1.857.179 3.214.536 4.047.357.846 1.06 1.417 2.119 1.715 1.06.297 2.763.452 5.12.452.179 0 .262.178.262.536 0 .357-.083.535-.262.535-1.762 0-3.143-.035-4.143-.095l-6.001-.095-6.001.095c-1.059.06-2.464.095-4.238.095-.179 0-.262-.178-.262-.535 0-.358.083-.536.262-.536 2.298 0 3.988-.155 5.072-.452 1.083-.298 1.833-.881 2.25-1.75.417-.87.619-2.203.619-4v-19.19l-15.097-22.322c-1.524-2.346-3.024-3.988-4.5-4.953-1.465-.964-3.299-1.44-5.477-1.44-.179 0-.262-.179-.262-.536 0-.357.083-.536.262-.536l3.262.096c1.405.119 2.465.178 3.179.178 1.941 0 4.322-.06 7.144-.178l4.584-.096c.119 0 .178.179.178.536 0 .357-.059.536-.178.536-1.763 0-3.048.13-3.846.405-.798.273-1.191.702-1.191 1.31 0 .356.298.987.881 1.892l14.823 21.69 11.299-17.464c1.298-2.155 1.941-3.81 1.941-4.952 0-1.917-1.583-2.881-4.762-2.881-.119 0-.179-.179-.179-.536 0-.357.06-.536.179-.536l3.976.096c2.239.119 4.203.178 5.906.178 1 0 2.214-.06 3.619-.178l3.262-.096c.131-.012.191.179.191.536zM4.608 102.929c1.143 0 2.155-.273 3.024-.821.88-.548 1.512-1.238 1.893-2.095v-3.06h-3.19c-1.442 0-2.596.31-3.454.94-.869.632-1.297 1.405-1.297 2.334 0 .798.261 1.44.797 1.94.536.512 1.274.762 2.227.762zm5.215 1.155c-.108-.5-.179-.928-.227-1.286a8.319 8.319 0 01-.071-1.095c-.536.774-1.238 1.405-2.12 1.905-.88.5-1.88.762-2.988.762-1.405 0-2.488-.381-3.262-1.143C.38 102.477 0 101.453 0 100.179c0-1.357.571-2.44 1.714-3.25s2.691-1.214 4.644-1.214h3.167v-1.81c0-1.047-.333-1.868-.988-2.464-.655-.595-1.584-.893-2.763-.893-1.107 0-2.024.286-2.75.858-.726.571-1.095 1.261-1.095 2.083l-1.465-.012-.023-.083c-.048-1.096.44-2.072 1.464-2.929 1.036-.869 2.346-1.297 3.94-1.297 1.584 0 2.858.404 3.823 1.226.964.821 1.452 2 1.452 3.535v7.203c0 .512.024 1.012.084 1.5.06.488.154.976.285 1.452H9.823zm18.204-13.262l-1.178-.083c-1 0-1.822.286-2.465.857-.643.571-1.095 1.357-1.37 2.369v10.119H21.42V89.429h1.393l.203 2.44v.168c.417-.905.976-1.608 1.667-2.12.702-.5 1.536-.761 2.5-.761.202 0 .405.011.595.047.19.036.346.06.477.107l-.227 1.512zm16.288 12.167c1.047 0 1.988-.31 2.785-.917.81-.607 1.203-1.464 1.203-2.547h1.405l.024.083c.047 1.357-.488 2.488-1.596 3.405-1.107.916-2.38 1.369-3.833 1.369-1.953 0-3.465-.691-4.537-2.048-1.071-1.369-1.595-3.13-1.595-5.274v-.571c0-2.131.536-3.881 1.607-5.25 1.072-1.37 2.572-2.06 4.513-2.06 1.571 0 2.893.477 3.94 1.429 1.048.952 1.56 2.19 1.525 3.738l-.024.083h-1.417c0-1.178-.381-2.107-1.167-2.81-.774-.702-1.726-1.047-2.845-1.047-1.536 0-2.68.56-3.417 1.69-.739 1.12-1.108 2.536-1.108 4.239v.571c0 1.726.37 3.155 1.108 4.274.726 1.083 1.869 1.643 3.428 1.643zM61.281 91.94a5.304 5.304 0 011.917-2.047c.798-.488 1.727-.726 2.786-.726 1.512 0 2.68.476 3.489 1.44.81.953 1.214 2.44 1.214 4.453v9.035h-1.595v-9.083c0-1.595-.31-2.738-.917-3.429-.62-.69-1.465-1.035-2.548-1.035s-2 .285-2.726.88c-.727.584-1.274 1.358-1.608 2.322v10.345h-1.595V82.952h1.595v8.989h-.012zM82.2 104.083h-1.583V89.429H82.2v14.654zm0-18.857h-1.583v-2.274H82.2v2.274zm14.026.453v3.75h3.155v1.321h-3.155v9.548c0 .952.166 1.631.512 2.036.345.404.797.607 1.357.607.262 0 .512-.012.75-.036.238-.024.524-.059.845-.119l.238 1.202c-.261.119-.583.203-.964.274-.381.06-.762.095-1.143.095-1.012 0-1.798-.321-2.357-.976-.56-.654-.846-1.678-.846-3.083V90.75H92.13v-1.32h2.488v-3.75h1.608zm19.704 4.858c-1.178 0-2.167.452-2.964 1.368-.798.917-1.262 2.06-1.393 3.441l.023.071h8.418v-.404c0-1.274-.369-2.334-1.107-3.19-.726-.858-1.727-1.286-2.977-1.286zm.191 13.833c-1.798 0-3.286-.679-4.477-2.036-1.191-1.357-1.786-3.071-1.786-5.143v-.75c0-2.095.595-3.833 1.774-5.214 1.179-1.381 2.62-2.072 4.298-2.072 1.762 0 3.144.572 4.156 1.703 1.012 1.143 1.512 2.655 1.512 4.547v1.382h-10.144v.392c0 1.655.428 3.024 1.285 4.131.858 1.107 1.989 1.667 3.382 1.667.988 0 1.833-.143 2.536-.417a5.072 5.072 0 001.798-1.202l.678 1.107c-.535.583-1.226 1.048-2.048 1.381-.833.357-1.821.524-2.964.524zm21.538-1.381c1.048 0 1.989-.31 2.786-.917.81-.607 1.203-1.464 1.203-2.547h1.405l.024.083c.047 1.357-.489 2.488-1.596 3.405-1.107.916-2.381 1.369-3.834 1.369-1.952 0-3.464-.691-4.536-2.048-1.071-1.369-1.595-3.13-1.595-5.274v-.571c0-2.131.535-3.881 1.607-5.25 1.072-1.37 2.572-2.06 4.512-2.06 1.572 0 2.894.477 3.941 1.429 1.048.952 1.56 2.19 1.524 3.738l-.023.083h-1.417c0-1.178-.381-2.107-1.167-2.81-.774-.702-1.727-1.047-2.846-1.047-1.536 0-2.679.56-3.417 1.69-.738 1.12-1.107 2.536-1.107 4.239v.571c0 1.726.369 3.155 1.107 4.274.727 1.083 1.881 1.643 3.429 1.643zm19.479-17.31v3.75h3.155v1.321h-3.155v9.548c0 .952.166 1.631.512 2.036.345.404.797.607 1.357.607.262 0 .512-.012.75-.036.25-.024.524-.059.845-.119l.239 1.202c-.262.119-.596.203-.965.274-.381.06-.762.095-1.143.095-1.012 0-1.798-.321-2.357-.976-.56-.654-.846-1.678-.846-3.083V90.75h-2.488v-1.32h2.488v-3.75h1.608zm23.098 16.012c-.465.857-1.084 1.524-1.858 1.988-.774.465-1.702.703-2.762.703-1.512 0-2.703-.524-3.56-1.572-.857-1.047-1.286-2.666-1.286-4.88v-8.49h1.596v8.536c0 1.786.297 3.083.893 3.857.595.774 1.44 1.167 2.536 1.167 1.202 0 2.167-.274 2.881-.822.714-.559 1.214-1.309 1.5-2.285V89.44h1.596v14.655h-1.405l-.131-2.405zm18.085-10.869l-1.179-.083c-1 0-1.821.286-2.464.857s-1.096 1.357-1.369 2.369v10.119h-1.596V89.429h1.393l.203 2.44v.168c.416-.905.976-1.608 1.666-2.12.703-.5 1.536-.761 2.501-.761.202 0 .405.011.595.047.191.036.345.06.476.107l-.226 1.512zm16.216-.285c-1.178 0-2.167.452-2.964 1.368-.798.917-1.262 2.06-1.393 3.441l.023.071h8.418v-.404c0-1.274-.369-2.334-1.107-3.19-.726-.858-1.715-1.286-2.977-1.286zm.203 13.833c-1.798 0-3.286-.679-4.477-2.036-1.191-1.357-1.786-3.071-1.786-5.143v-.75c0-2.095.595-3.833 1.774-5.214 1.179-1.381 2.619-2.072 4.298-2.072 1.762 0 3.143.572 4.155 1.703 1.012 1.143 1.513 2.655 1.513 4.547v1.382h-10.145v.392c0 1.655.429 3.024 1.286 4.131.858 1.107 1.989 1.667 3.382 1.667.988 0 1.833-.143 2.536-.417a5.08 5.08 0 001.798-1.202l.678 1.107c-.536.583-1.226 1.048-2.048 1.381-.845.357-1.821.524-2.964.524zm37.337-15.846c0 .595.143 1.214.417 1.857s.703 1.321 1.286 2.048l2.346-1.786c.512-.405.881-.833 1.095-1.274.214-.44.321-.917.321-1.417 0-.714-.226-1.31-.702-1.773-.464-.465-1.107-.703-1.941-.703-.905 0-1.595.298-2.095.881-.477.572-.727 1.298-.727 2.167zm2.596 14.464a6.18 6.18 0 002.381-.488 6.887 6.887 0 002.096-1.381l-5.501-6.524a.853.853 0 01-.107-.119c-.036-.035-.06-.06-.072-.107l-.619.488c-1.024.845-1.714 1.607-2.059 2.298-.346.69-.524 1.31-.524 1.893 0 1.119.381 2.047 1.131 2.809.738.75 1.833 1.131 3.274 1.131zm-2.072-9.666c-.714-.905-1.25-1.727-1.595-2.477a5.425 5.425 0 01-.512-2.297c0-1.429.393-2.524 1.179-3.31.785-.774 1.869-1.166 3.238-1.166 1.274 0 2.286.368 3.036 1.095.75.726 1.119 1.654 1.119 2.762 0 .81-.202 1.511-.595 2.095-.393.583-.976 1.178-1.726 1.762l-2.108 1.654 5.465 6.512a7.614 7.614 0 001.012-2.154 8.848 8.848 0 00.357-2.548h1.465c0 1.155-.167 2.214-.488 3.19a8.486 8.486 0 01-1.405 2.631l2.452 2.929-.023.071h-1.822l-1.619-1.904a8.465 8.465 0 01-2.465 1.631 7.293 7.293 0 01-2.893.571c-1.845 0-3.31-.488-4.393-1.452-1.084-.965-1.62-2.25-1.62-3.857 0-1.084.322-2.06.965-2.929.643-.87 1.571-1.762 2.786-2.667l.19-.142zm40.934 3.845c0 1.785.345 3.19 1.048 4.25.69 1.047 1.738 1.583 3.143 1.583 1.024 0 1.881-.238 2.572-.714.69-.465 1.214-1.119 1.595-1.953v-6.916a5.14 5.14 0 00-1.536-2.072c-.667-.535-1.524-.797-2.607-.797-1.393 0-2.453.583-3.155 1.761-.703 1.179-1.06 2.703-1.06 4.584v.274zm-1.584-.286c0-2.345.489-4.214 1.453-5.62.964-1.404 2.322-2.106 4.06-2.106 1 0 1.869.214 2.607.654.739.44 1.346 1.048 1.834 1.846v-8.69h1.583v21.13h-1.404l-.131-2.131a5.01 5.01 0 01-1.846 1.786c-.75.417-1.631.619-2.655.619-1.714 0-3.06-.655-4.024-1.952-.965-1.298-1.453-3.06-1.453-5.25v-.286h-.024zm27.515-6.344c-1.178 0-2.166.452-2.964 1.368-.798.917-1.262 2.06-1.393 3.441l.024.071h8.417v-.404c0-1.274-.369-2.334-1.107-3.19-.714-.858-1.714-1.286-2.977-1.286zm.203 13.833c-1.798 0-3.286-.679-4.477-2.036-1.19-1.357-1.786-3.071-1.786-5.143v-.75c0-2.095.596-3.833 1.774-5.214 1.179-1.381 2.608-2.072 4.298-2.072 1.762 0 3.144.572 4.156 1.703 1.012 1.143 1.512 2.655 1.512 4.547v1.382h-10.144v.392c0 1.655.428 3.024 1.286 4.131.857 1.107 1.988 1.667 3.381 1.667.988 0 1.833-.143 2.536-.417a5.072 5.072 0 001.798-1.202l.678 1.107c-.535.583-1.226 1.048-2.047 1.381-.834.357-1.822.524-2.965.524zm24.646-4.012c0-.679-.274-1.286-.834-1.798-.559-.512-1.548-.928-2.988-1.262-1.715-.38-2.989-.88-3.81-1.5-.822-.619-1.226-1.5-1.226-2.642 0-1.12.464-2.072 1.393-2.834.928-.774 2.143-1.154 3.667-1.154 1.619 0 2.905.404 3.845 1.226.941.821 1.393 1.833 1.358 3.071l-.024.083h-1.477c0-.797-.333-1.5-1-2.095-.666-.595-1.571-.893-2.702-.893-1.155 0-2.024.25-2.608.762-.583.512-.869 1.107-.869 1.786 0 .678.25 1.238.75 1.667.5.44 1.5.821 2.989 1.154 1.714.393 2.988.917 3.833 1.596.846.678 1.274 1.595 1.274 2.75 0 1.226-.488 2.214-1.452 2.976-.965.75-2.25 1.131-3.846 1.131-1.738 0-3.119-.429-4.108-1.274-1-.845-1.464-1.857-1.416-3.036l.023-.083h1.465c.059 1.048.488 1.809 1.262 2.298.786.476 1.703.714 2.762.714 1.155 0 2.06-.262 2.727-.774.678-.524 1.012-1.143 1.012-1.869zm13.097 3.725h-1.584V89.429h1.584v14.654zm0-18.857h-1.584v-2.274h1.584v2.274zm11.525 11.941c0 1.774.357 3.179 1.059 4.239.703 1.059 1.763 1.583 3.156 1.583 1.023 0 1.881-.238 2.571-.726.691-.488 1.215-1.155 1.584-2v-6.798a5.178 5.178 0 00-1.524-2.107c-.667-.548-1.536-.822-2.608-.822-1.393 0-2.452.584-3.179 1.762-.714 1.179-1.071 2.703-1.071 4.572v.297h.012zm-1.584-.285c0-2.346.488-4.215 1.465-5.62.976-1.404 2.333-2.106 4.084-2.106 1.023 0 1.893.226 2.643.678.738.453 1.357 1.095 1.845 1.929l.191-2.346h1.345v14.465c0 1.881-.512 3.381-1.536 4.464-1.024 1.095-2.441 1.643-4.262 1.643a9.788 9.788 0 01-2.203-.262c-.774-.179-1.464-.405-2.048-.702l.417-1.369a7.954 7.954 0 001.798.654 9.05 9.05 0 002.012.226c1.393 0 2.453-.404 3.167-1.238.714-.821 1.072-1.964 1.072-3.428v-1.845a5.193 5.193 0 01-1.846 1.714c-.738.405-1.607.607-2.607.607-1.727 0-3.072-.655-4.06-1.964-.977-1.31-1.465-3.06-1.465-5.238v-.262h-.012zm22.896-7.452l.143 2.559c.464-.905 1.083-1.607 1.869-2.095.786-.489 1.714-.739 2.786-.739 1.56 0 2.738.489 3.56 1.453.81.976 1.226 2.488 1.226 4.547v8.929h-1.595v-8.928c0-1.68-.31-2.87-.917-3.572-.619-.702-1.488-1.047-2.619-1.047-1.12 0-2.024.297-2.727.904-.702.596-1.214 1.405-1.524 2.393v10.25h-1.595V89.429h1.393z"/></g><defs><clipPath id="clip0_183_129"><path fill="#fff" d="M0 0h400v110H0z"/></clipPath></defs></svg>